:SAMPLES-PER-SECOND 30
:FULLY-SPECIFIED
:DEGREES
164
root  7.51463 35.3335 5.92357 -170.021 -41.6893 -175.68
RightUpLeg  -51.5147 5.95494 3.13913
RightLeg  44.7781 11.2906 11.4888
RightFoot  -3.63512 -0.497361 7.03379
RightToes  5.82063e-011 0 -3.6325e-017
Spine  47.6756 -2.99371 4.72003
Spine1  -14.6714 -0.143478 0.0210861
HEad  -55.8651 -20.105 15.7273
LeftShoulder1  -0.160031 -2.07922 12.9487
LeftArm  74.265 -76.0204 -151.401
LeftForeArm  145.442 -76.3699 -135.668
LeftHand  -1.09387 0.0877728 23.8504
RightShoulder  -0.310213 0.890729 -17.8717
RightArm  -73.3722 81.0563 -8.59707
RightForeArm  11.3362 -6.86644 5.84517
RightHand  0.308182 -9.02685 -10.8266
LeftUpLeg  -48.1664 -4.25841 -1.30648
LeftLeg  58.2273 20.6003 31.9576
LeftFoot  -14.197 -0.127591 -8.5104
LeftToes  -1.1369e-010 2.7689e-011 -1.90827e-011
165
root  7.59122 36.367 5.83781 -167.542 -42.5045 -176.161
RightUpLeg  -49.6501 5.74909 2.55514
RightLeg  37.316 12.706 9.96283
RightFoot  -0.519774 -0.695705 7.3023
RightToes  5.82063e-011 0 -3.6325e-017
Spine  46.5142 -2.71436 3.99727
Spine1  -15.5618 -0.182532 0.840778
HEad  -53.5554 -19.7315 16.0348
LeftShoulder1  -0.186029 -1.42978 13.9834
LeftArm  77.181 -76.8709 -155.514
LeftForeArm  144.353 -76.6002 -134.638
LeftHand  -1.07016 0.359503 24.563
RightShoulder  -0.302306 0.711014 -18.0109
RightArm  -86.3624 79.5996 -25.5937
RightForeArm  8.73607 -6.9393 6.33829
RightHand  0.261777 -8.64866 -10.418
LeftUpLeg  -46.8953 -5.64386 -0.66507
LeftLeg  51.816 24.312 29.6978
LeftFoot  -10.7589 0.104451 -7.85389
LeftToes  -1.1369e-010 2.7689e-011 -1.90827e-011
166
root  7.65167 36.9708 5.74848 -165.282 -43.5853 -176.999
RightUpLeg  -48.9587 5.60722 1.50351
RightLeg  32.9407 13.6349 9.13109
RightFoot  1.39725 -0.824171 7.46132
RightToes  5.82063e-011 0 -3.6325e-017
Spine  45.6695 -2.81397 3.74076
Spine1  -16.5447 -0.405749 1.12553
HEad  -51.719 -19.7373 16.2151
LeftShoulder1  -0.206338 -0.905232 15.0071
LeftArm  83.383 -77.5917 -163.118
LeftForeArm  143.567 -76.7783 -133.826
LeftHand  -1.04659 0.534234 24.8726
RightShoulder  -0.199367 -1.04216 -19.3868
RightArm  -102.071 76.5036 -44.0067
RightForeArm  6.08945 -6.75587 5.32475
RightHand  0.220116 -8.16522 -10.4363
LeftUpLeg  -46.5648 -6.53851 -0.58921
LeftLeg  47.3664 26.0059 27.372
LeftFoot  -8.02727 0.260202 -7.3126
LeftToes  -1.1369e-010 2.7689e-011 -1.90827e-011
167
root  7.73039 37.1251 5.65585 -163.666 -44.8171 -177.858
RightUpLeg  -49.5196 5.90178 0.270121
RightLeg  32.1463 13.3225 8.65895
RightFoot  1.7068 -0.829864 7.35152
RightToes  5.82063e-011 0 -3.6325e-017
Spine  45.4741 -2.85289 3.94419
Spine1  -17.9138 -0.344402 1.36866
HEad  -51.3722 -20.2489 15.7174
LeftShoulder1  -0.233491 -0.893993 15.7291
LeftArm  90.3897 -78.0668 -171.726
LeftForeArm  143.822 -76.6983 -134.17
LeftHand  -1.0516 0.545704 25.0459
RightShoulder  0.0461274 -3.86756 -21.786
RightArm  -111.408 71.9413 -55.4823
RightForeArm  3.79057 -6.43816 3.54054
RightHand  0.202682 -7.7939 -11.0974
LeftUpLeg  -47.2177 -6.53605 -1.00846
LeftLeg  45.6599 25.2821 25.4124
LeftFoot  -6.78554 0.321032 -7.02356
LeftToes  -1.1369e-010 2.7689e-011 -1.90827e-011
168
root  7.84084 36.8497 5.53627 -163.08 -46.071 -178.681
RightUpLeg  -50.9102 6.68601 -0.794382
RightLeg  34.7658 11.2224 8.01718
RightFoot  0.363628 -0.631911 6.15053
RightToes  5.82063e-011 0 -3.6325e-017
Spine  46.217 -2.87538 4.36835
Spine1  -19.5565 -0.145522 1.44117
HEad  -52.1953 -20.78 15.025
LeftShoulder1  -0.272731 -1.11103 16.4236
LeftArm  94.7998 -78.4146 -177.801
LeftForeArm  144.82 -76.469 -135.196
LeftHand  -1.07 0.526558 25.3752
RightShoulder  0.36928 -6.34469 -24.1404
RightArm  -114.123 66.7491 -61.4618
RightForeArm  0.221235 -6.14748 2.05234
RightHand  0.198383 -7.56096 -11.9354
LeftUpLeg  -48.3096 -5.99081 -1.75924
LeftLeg  46.9248 22.834 24.3179
LeftFoot  -7.5509 0.286745 -7.32393
LeftToes  -1.1369e-010 2.7689e-011 -1.90827e-011
169
root  7.98367 36.1676 5.38706 -164.092 -47.3969 -179.451
RightUpLeg  -52.3154 7.45313 -1.30641
RightLeg  40.4033 8.19029 7.12563
RightFoot  -2.4006 -0.358756 4.35714
RightToes  5.82063e-011 0 -3.6325e-017
Spine  47.7745 -2.79816 4.52418
Spine1  -20.3329 -0.0100988 2.12054
HEad  -53.3449 -20.8531 14.3179
LeftShoulder1  -0.285392 -1.12448 16.7128
LeftArm  98.0752 -78.9298 177.632
LeftForeArm  145.891 -76.2744 -136.084
LeftHand  -1.06359 0.655741 25.899
RightShoulder  0.714858 -8.24067 -26.5213
RightArm  -113.926 62.1271 -64.9402
RightForeArm  -5.53928 -5.8788 0.957851
RightHand  0.188977 -7.40302 -12.2753
LeftUpLeg  -49.1611 -5.31663 -2.69165
LeftLeg  51.0685 19.4726 24.2716
LeftFoot  -10.0177 0.152846 -8.14956
LeftToes  -1.1369e-010 2.7689e-011 -1.90827e-011
170
root  8.14765 35.1054 5.21365 -167.164 -48.9065 -179.588
RightUpLeg  -53.1757 7.60757 -0.793283
RightLeg  48.1881 5.68637 6.46025
RightFoot  -6.11778 -0.209883 3.79758
RightToes  5.82063e-011 0 -3.6325e-017
Spine  49.7275 -2.73774 4.56648
Spine1  -19.5936 -0.0740253 3.55369
HEad  -53.7885 -20.1514 13.6342
LeftShoulder1  -0.270882 -1.07585 16.4293
LeftArm  100.909 -79.7356 174.254
LeftForeArm  146.585 -76.2028 -136.467
LeftHand  -1.03206 0.888837 26.3605
RightShoulder  1.04815 -9.69389 -28.6338
RightArm  -114.848 59.3617 -67.2673
RightForeArm  -10.5261 -5.58855 -0.201778
RightHand  0.173015 -7.24547 -12.2924
LeftUpLeg  -49.6484 -4.51815 -3.37993
LeftLeg  57.5944 15.5465 24.9724
LeftFoot  -13.4215 -0.0787753 -8.79843
LeftToes  -1.1369e-010 2.7689e-011 -1.90827e-011
171
root  8.2947 33.7838 5.00305 -171.868 -50.412 -178.376
RightUpLeg  -53.6532 6.92538 0.964946
RightLeg  56.5316 4.24108 6.48101
RightFoot  -10.0751 -0.120184 4.90985
RightToes  5.82063e-011 0 -3.6325e-017
Spine  51.3793 -2.80336 4.95833
Spine1  -18.0146 -0.243539 4.8746
HEad  -52.8402 -18.791 13.2032
LeftShoulder1  -0.289682 -1.80471 15.9151
LeftArm  97.4534 -80.7805 178.084
LeftForeArm  146.611 -76.3501 -135.988
LeftHand  -1.02594 0.95517 26.4563
RightShoulder  1.11805 -9.8803 -29.2697
RightArm  -117.446 59.1891 -68.3616
RightForeArm  -11.048 -5.43847 -0.995454
RightHand  0.145453 -6.93434 -12.6166
LeftUpLeg  -50.0992 -3.83991 -3.14041
LeftLeg  65.1282 11.5689 25.9823
LeftFoot  -17.2198 -0.347118 -8.7823
LeftToes  -1.1369e-010 2.7689e-011 -1.90827e-011
172
root  8.40288 32.4944 4.75121 -176.648 -51.5548 -176.227
RightUpLeg  -54.1254 5.58914 3.43032
RightLeg  63.6218 3.46749 7.03861
RightFoot  -13.4581 0.0165181 5.98643
RightToes  5.82063e-011 0 -3.6325e-017
Spine  52.1142 -2.94207 5.57666
Spine1  -16.2488 -0.35013 5.1648
HEad  -51.1398 -17.2258 13.3691
LeftShoulder1  -0.331012 -3.11094 15.3907
LeftArm  82.3507 -80.9326 -165.628
LeftForeArm  146.162 -76.7169 -134.634
LeftHand  -1.05571 0.728275 26.1083
RightShoulder  0.769402 -8.19047 -27.915
RightArm  -119.314 61.7392 -67.3601
RightForeArm  -7.26547 -5.57261 -0.636835
RightHand  0.114079 -6.56211 -13.2927
LeftUpLeg  -50.6187 -3.85099 -1.96491
LeftLeg  71.7102 8.29271 27.0207
LeftFoot  -20.9369 -0.580258 -8.39693
LeftToes  -1.1369e-010 2.7689e-011 -1.90827e-011
173
root  8.51438 31.5933 4.48876 -179.964 -52.3345 -174.507
RightUpLeg  -54.4268 3.98421 5.58266
RightLeg  68.1642 3.0897 7.77691
RightFoot  -15.6459 0.114889 5.89819
RightToes  5.82063e-011 0 -3.6325e-017
Spine  51.8196 -2.99445 5.91388
Spine1  -13.9045 -0.33242 4.25098
HEad  -50.4697 -16.0773 14.0747
LeftShoulder1  -0.31796 -3.49247 14.8581
LeftArm  68.6517 -79.1671 -150.382
LeftForeArm  146.093 -77.0256 -133.503
LeftHand  -1.09794 0.409411 25.426
RightShoulder  0.329406 -5.80024 -25.5087
RightArm  -118.969 66.4668 -63.2284
RightForeArm  -2.03665 -5.84012 0.430721
RightHand  0.121597 -6.58102 -13.7496
LeftUpLeg  -50.8786 -4.70081 -0.648978
LeftLeg  75.8903 6.24966 27.8755
LeftFoot  -23.66 -0.729432 -8.06008
LeftToes  -1.1369e-010 2.7689e-011 -1.90827e-011
174
root  8.69332 31.3033 4.24333 178.446 -53.1911 -173.817
RightUpLeg  -54.0462 2.40541 6.85533
RightLeg  69.5834 3.09122 8.40644
RightFoot  -16.4578 0.141608 5.65106
RightToes  5.82063e-011 0 -3.6325e-017
Spine  50.9237 -2.91678 5.99823
Spine1  -10.9989 -0.113054 2.45124
HEad  -51.5953 -16.0044 14.7955
LeftShoulder1  -0.267866 -2.65284 14.6432
LeftArm  65.4759 -77.2652 -145.711
LeftForeArm  146.734 -77.0588 -133.527
LeftHand  -1.0939 0.248499 24.5658
RightShoulder  0.0457046 -3.84212 -23.1409
RightArm  -114.129 72.0812 -53.5077
RightForeArm  2.90714 -6.05165 1.32387
RightHand  0.183175 -7.14146 -13.5774
LeftUpLeg  -50.572 -6.0213 0.309381
LeftLeg  77.219 5.60233 28.23
LeftFoot  -24.531 -0.764404 -7.87028
LeftToes  -1.1369e-010 2.7689e-011 -1.90827e-011
175
root  8.96396 31.6413 4.00229 177.96 -54.6084 -173.498
RightUpLeg  -52.8644 1.0359 7.52483
RightLeg  67.8109 3.32261 8.25804
RightFoot  -16.0565 0.155163 6.43784
RightToes  5.82063e-011 0 -3.6325e-017
Spine  50.0069 -2.72437 6.15459
Spine1  -8.5874 0.326342 0.739018
HEad  -53.3613 -16.92 14.8863
LeftShoulder1  -0.22185 -1.55501 14.6819
LeftArm  68.7432 -76.7207 -147.663
LeftForeArm  146.873 -77.0217 -133.697
LeftHand  -1.0608 0.239471 23.8055
RightShoulder  -0.118487 -2.22949 -21.0312
RightArm  -100.39 76.5184 -36.0313
RightForeArm  6.75798 -6.26046 2.365
RightHand  0.254754 -7.86368 -13.0772
LeftUpLeg  -49.792 -7.50996 1.23997
LeftLeg  75.787 6.26411 27.7406
LeftFoot  -23.5607 -0.7217 -8.05637
LeftToes  -1.1369e-010 2.7689e-011 -1.90827e-011
176
root  9.2882 32.4813 3.73847 178.27 -56.7381 -173.018
RightUpLeg  -51.1791 0.206527 7.9127
RightLeg  63.2149 3.41958 6.82021
RightFoot  -14.646 0.120831 7.64873
RightToes  5.82063e-011 0 -3.6325e-017
Spine  49.4178 -2.40761 6.34118
Spine1  -8.03638 0.840541 -0.214288
HEad  -53.8486 -18.0634 14.2369
LeftShoulder1  -0.227365 -1.36038 15.0051
LeftArm  72.5458 -77.3245 -150.574
LeftForeArm  145.705 -77.2037 -132.734
LeftHand  -1.04701 0.254394 23.5694
RightShoulder  -0.250023 -0.348907 -18.9074
RightArm  -79.683 78.1534 -14.7398
RightForeArm  9.4098 -6.56306 4.06778
RightHand  0.300847 -8.35121 -12.7989
LeftUpLeg  -48.7592 -9.08548 2.47954
LeftLeg  71.7901 7.97912 26.3025
LeftFoot  -21.3489 -0.653944 -8.93758
LeftToes  -1.1369e-010 2.7689e-011 -1.90827e-011
177
root  9.60132 33.6206 3.44566 179.782 -59.3467 -173
RightUpLeg  -49.3114 0.271137 7.66521
RightLeg  56.7107 3.00169 4.50278
RightFoot  -12.3564 -0.011818 7.97933
RightToes  5.82063e-011 0 -3.6325e-017
Spine  48.925 -2.03533 6.02664
Spine1  -8.90102 1.10952 -0.462969
HEad  -52.7221 -18.3535 13.3837
LeftShoulder1  -0.245263 -1.19661 15.6452
LeftArm  76.4232 -77.8527 -154.503
LeftForeArm  144.111 -77.4799 -131.258
LeftHand  -1.05043 0.335108 24.0105
RightShoulder  -0.28792 0.537719 -17.9443
RightArm  -66.618 78.278 -1.74454
RightForeArm  11.0086 -6.75714 5.19098
RightHand  0.322479 -8.61379 -12.5793
LeftUpLeg  -47.5262 -10.5519 3.58956
LeftLeg  65.6451 10.2514 24.0017
LeftFoot  -18.3463 -0.508836 -10.0897
LeftToes  -1.1369e-010 2.7689e-011 -1.90827e-011
